<?xml version="1.0" encoding="utf-8"?>
<!-- Generator: Adobe Illustrator 24.0.1, SVG Export Plug-In . SVG Version: 6.00 Build 0)  -->
<svg version="1.1" id="Layer_1" xmlns="http://www.w3.org/2000/svg" xmlns:xlink="http://www.w3.org/1999/xlink" x="0px" y="0px"
	 viewBox="0 0 779.3 356.9" style="enable-background:new 0 0 779.3 356.9;" xml:space="preserve">
<style type="text/css">
	.st0{fill:#FFFFFF;}
	.st1{fill:#B01824;}
	.st2{fill:#0777BD;}
</style>
<title>Asset 1</title>
<g id="Layer_1-2">
	<g id="Layer_2-2">
		<g id="Layer_1-2-2">
			<rect x="253.8" y="216" class="st0" width="525.4" height="11.2"/>
			<path class="st0" d="M61.8,77.6h11.5V212H59.8V92.4l-30.1,9l-3.5-11.5L61.8,77.6z"/>
			<path class="st0" d="M254,121c0.2,9.6-2.7,19-8.3,26.9l-139.9,209H90.4l129.2-192.7c-3.5,0.8-7.1,1.2-10.7,1.2
				c-13.2,0-24-4.1-32.4-12.4c-8.4-8.3-12.7-18.9-12.7-32s4.2-23.7,12.7-32s19.3-12.4,32.4-12.4c13.2,0,24,4.1,32.4,12.4
				C249.8,97.3,254,107.9,254,121z M185.9,98.4c-5.8,5.8-8.7,13.3-8.7,22.6s2.9,16.9,8.7,22.7s13.5,8.6,23,8.6s17.1-2.9,22.9-8.6
				c5.8-5.8,8.7-13.3,8.7-22.7s-2.9-16.9-8.7-22.7c-5.8-5.8-13.5-8.6-22.9-8.6C199.4,89.7,191.8,92.6,185.9,98.4z"/>
			<path class="st0" d="M163.6,121c0.2,9.6-2.7,19-8.2,26.9l-139.9,209H0l129.2-192.7c-3.5,0.8-7.1,1.2-10.7,1.2
				c-13.2,0-24-4.1-32.4-12.4s-12.7-18.9-12.7-32c0-13,4.2-23.7,12.7-32s19.3-12.4,32.5-12.4s24,4.1,32.4,12.4
				C159.3,97.3,163.6,107.9,163.6,121z M95.5,98.4c-5.8,5.8-8.7,13.3-8.7,22.6s2.9,16.9,8.7,22.7c5.8,5.8,13.5,8.6,22.9,8.6
				s17.1-2.9,22.9-8.6c5.8-5.8,8.7-13.3,8.7-22.7s-2.9-16.9-8.7-22.7c-5.8-5.8-13.5-8.6-22.9-8.6S101.3,92.6,95.5,98.4z"/>
			<path class="st0" d="M395.2,77c12.6,0,22.8,4.4,30.5,13.3c7.7,8.7,11.8,19.9,11.6,31.5c0,1.2-0.1,3-0.3,5.3h-74.6
				c1.1,8.6,4.8,15.4,11,20.5s13.8,7.6,22.9,7.6c5.8,0.2,11.6-1.2,16.7-4c4.5-2.4,8.1-6,10.6-10.4l9.9,5.8c-3.8,6-9,10.9-15.3,14.3
				c-6.8,3.6-14.4,5.4-22.1,5.3c-13.4,0-24.2-4.2-32.6-12.6s-12.6-19.1-12.6-32c0-12.7,4.1-23.3,12.4-31.8S382.2,76.9,395.2,77z
				 M395.2,87.9c-8.8,0-16.2,2.6-22.2,7.9s-9.7,12.6-10.6,20.5h63.4c-1.1-9-4.6-15.9-10.4-20.9C409.8,90.5,402.6,87.8,395.2,87.9
				L395.2,87.9z"/>
			<path class="st0" d="M729.6,100.6c0,3.7,2,7.1,5.2,9c3.9,2.4,8.1,4.2,12.5,5.4l14.6,4.2c4.7,1.3,9,3.9,12.3,7.6
				c3.3,3.6,5,8.4,5,14.3c0.2,6.9-3,13.5-8.6,17.7c-5.7,4.5-13.1,6.8-22.2,6.8c-8.2,0-15.1-1.8-20.8-5.4c-5.4-3.3-9.6-8.2-12-14.1
				l9.5-5.6c1.6,4.4,4.6,8.1,8.6,10.5c4.4,2.6,9.5,4,14.7,3.8c5.6,0,10.2-1.1,13.9-3.3s5.6-5.6,5.6-10.3c0.1-3.8-1.9-7.2-5.1-9.2
				c-3.8-2.4-8-4.3-12.4-5.4l-14.6-4.2c-4.7-1.3-9-3.9-12.4-7.4c-3.4-3.6-5.1-8.2-5.1-14c-0.1-6.8,2.9-13.2,8.2-17.4
				c5.5-4.7,12.4-7,20.8-7c6.4-0.1,12.7,1.5,18.2,4.7c5.1,2.9,9.1,7.4,11.6,12.7l-9.3,5.4c-3.3-7.9-10.1-11.9-20.4-11.9
				c-4.4-0.1-8.8,1.1-12.6,3.4C731.5,92.9,729.5,96.6,729.6,100.6z"/>
			<path class="st1" d="M528.2,66.9c-3.2,3.2-8.4,3.2-11.6,0c-3.2-3.2-3.2-8.4,0-11.6c3.2-3.2,8.4-3.2,11.6,0
				c1.6,1.5,2.4,3.6,2.4,5.8C530.6,63.3,529.7,65.4,528.2,66.9z"/>
			<rect x="516.8" y="77.3" class="st0" width="11.2" height="88.6"/>
			<path class="st0" d="M614.1,78.9h11.2v81.6c0,12.2-4.2,21.9-12.6,28.9c-8.4,7-18.4,10.5-30.1,10.6c-20,0-33.4-6.9-40.3-20.7
				l9.9-5.6c5.1,10.3,15.2,15.5,30.4,15.5c9.8,0,17.4-2.6,23-7.7s8.4-12.1,8.4-20.8v-13.3c-7.8,12.5-19.2,18.7-34.3,18.7
				c-11.7,0.2-22.9-4.5-31-12.9c-8.5-8.6-12.8-19.1-12.8-31.6c-0.2-11.9,4.4-23.3,12.8-31.6c8.1-8.4,19.3-13.1,31-12.9
				c15.1,0,26.5,6.2,34.3,18.7L614.1,78.9z M556.8,145.3c13.2,13,34.4,13,47.6,0c12.9-13.3,12.9-34.5,0-47.8
				c-13.2-13-34.4-13-47.6,0C543.9,110.8,543.9,132,556.8,145.3z"/>
			<path class="st0" d="M673.8,77.5c10.5,0,18.8,3.2,24.9,9.6c6.1,6.4,9.1,15.1,9.1,25.9v53.2h-11.4V113c0-7.7-2-13.7-6.2-18
				c-4.1-4.3-9.9-6.4-17.4-6.4c-8.3,0-15.1,2.6-20.3,7.9s-7.8,13.4-7.8,24.3v45.4h-11.4V79.6h11.4v13.5
				C651.1,82.7,660.9,77.5,673.8,77.5z"/>
			<path class="st0" d="M459.2,101c0,3.7,1.9,7.2,5.2,9c3.9,2.4,8.1,4.3,12.5,5.5l14.6,4.2c4.7,1.3,9,3.9,12.3,7.6
				c3.3,3.6,5,8.4,5,14.3c0.2,6.9-3,13.5-8.6,17.7c-5.7,4.5-13.1,6.8-22.2,6.8c-8.2,0-15.1-1.8-20.8-5.4c-5.4-3.3-9.6-8.2-12-14.1
				l9.5-5.6c1.6,4.4,4.6,8.1,8.6,10.4c4.4,2.6,9.5,4,14.7,3.8c5.5,0,10.2-1.1,13.9-3.3c3.7-2.2,5.6-5.7,5.6-10.4
				c0.1-3.7-1.9-7.2-5.1-9.2c-3.8-2.5-8-4.3-12.4-5.5l-14.6-4.2c-4.7-1.3-9-3.9-12.4-7.4c-3.4-3.6-5.1-8.2-5.1-14
				c-0.1-6.7,3-13.1,8.2-17.3c5.5-4.7,12.4-7,20.8-7c6.4-0.1,12.7,1.5,18.2,4.7c5.1,2.9,9.1,7.4,11.6,12.7l-9.4,5.4
				c-3.3-7.9-10.1-11.9-20.4-11.9c-4.4-0.1-8.8,1.1-12.6,3.4C461.1,93.3,459.1,97,459.2,101z"/>
			<rect x="332" y="0" class="st0" width="11" height="121.9"/>
			<path class="st2" d="M330.2,153.6c-17.7,17.1-45.7,17.1-63.4,0c-8.7-8.6-13-19.1-13-31.7s4.3-23.2,13-31.7
				c8.4-8.4,19.8-13.1,31.7-12.8c12.5,0,23,4.3,31.7,12.8s13,19.1,13,31.7C343.2,134.5,338.9,145,330.2,153.6z M274.7,145.8
				c13.2,13,34.4,13,47.6,0c12.9-13.3,12.9-34.5,0-47.8c-13.2-13-34.4-13-47.6,0C262,111.3,262.2,132.3,274.7,145.8z"/>
		</g>
	</g>
</g>
</svg>
