<svg width="16" height="15" viewBox="0 0 16 15" fill="none" xmlns="http://www.w3.org/2000/svg">
<path d="M8.00032 1.34282C10.1366 1.34282 10.3894 1.35051 11.2332 1.38628C12.0132 1.41938 12.4368 1.54057 12.7188 1.64254C13.0667 1.76178 13.3815 1.95218 13.6398 2.19971C13.9057 2.44014 14.1103 2.73307 14.2384 3.0569C14.348 3.31938 14.4782 3.71368 14.5138 4.43963C14.5522 5.22499 14.5604 5.46027 14.5604 7.44864C14.5604 9.43702 14.5522 9.6723 14.5138 10.4577C14.4782 11.1836 14.348 11.5779 14.2384 11.8404C14.1052 12.1614 13.9013 12.453 13.6398 12.6964C13.3783 12.9398 13.065 13.1295 12.7201 13.2536C12.4381 13.3555 12.0144 13.4767 11.2345 13.5098C10.391 13.5456 10.1379 13.5533 8.00159 13.5533C5.86527 13.5533 5.61216 13.5456 4.76869 13.5098C3.98873 13.4767 3.56508 13.3555 3.28308 13.2536C2.93516 13.1343 2.62043 12.9439 2.36211 12.6964C2.09616 12.456 1.89159 12.163 1.76349 11.8392C1.65392 11.5767 1.52372 11.1824 1.48815 10.4565C1.44972 9.67112 1.44147 9.43583 1.44147 7.44746C1.44147 5.45909 1.44972 5.2238 1.48815 4.43844C1.52372 3.7125 1.65392 3.31819 1.76349 3.05572C1.89159 2.73189 2.09616 2.43896 2.36211 2.19853C2.62043 1.951 2.93516 1.7606 3.28308 1.64136C3.56508 1.53939 3.98873 1.4182 4.76869 1.38509C5.61248 1.34933 5.86527 1.34164 8.00159 1.34164L8.00032 1.34282ZM8.00159 0C5.82875 0 5.55627 0.00857185 4.70295 0.0449283C3.84963 0.0812848 3.26879 0.208089 2.75972 0.392236C2.22593 0.579176 1.74236 0.872204 1.3427 1.2509C0.936403 1.62302 0.622122 2.07309 0.421738 2.56978C0.222302 3.0436 0.0870152 3.58481 0.0482712 4.37726C0.00952721 5.16971 0 5.42509 0 7.44746C0 9.46982 0.00920964 9.72343 0.0482712 10.5177C0.0873328 11.3119 0.222302 11.8513 0.42015 12.3251C0.621 12.822 0.93583 13.272 1.3427 13.644C1.74243 14.0227 2.22597 14.3158 2.75972 14.503C3.26783 14.6868 3.85026 14.8127 4.70168 14.8491C5.55309 14.8855 5.82748 14.8937 8.00032 14.8937C10.1732 14.8937 10.4456 14.8852 11.299 14.8491C12.1523 14.813 12.7318 14.6868 13.2409 14.503C13.7724 14.3116 14.255 14.0191 14.6579 13.644C15.0609 13.269 15.3752 12.8198 15.5808 12.3251C15.7783 11.8522 15.9136 11.3101 15.9527 10.5177C15.9917 9.72521 16.0006 9.46982 16.0006 7.44746C16.0006 5.42509 15.9914 5.17149 15.9527 4.37726C15.9139 3.58303 15.7783 3.0436 15.5808 2.56978C15.3797 2.073 15.0648 1.62295 14.6579 1.2509C14.2581 0.872737 13.7746 0.580221 13.2409 0.393714C12.7318 0.208089 12.1504 0.0821715 11.299 0.0461106C10.4475 0.0100498 10.1732 0.00118232 8.00032 0.00118232L8.00159 0Z" fill="white" fill-opacity="0.87"/>
<path d="M8.00036 3.62402C7.18777 3.62402 6.39343 3.8483 5.71779 4.26849C5.04216 4.68869 4.51556 5.28592 4.20462 5.98468C3.89367 6.68343 3.81232 7.45231 3.97087 8.19409C4.12943 8.93587 4.52075 9.61723 5.09536 10.152C5.66997 10.6868 6.40205 11.051 7.19903 11.1985C7.99602 11.346 8.8221 11.2702 9.57282 10.9807C10.3235 10.6913 10.9652 10.2011 11.4166 9.57222C11.868 8.94334 12.1089 8.20399 12.1088 7.44767C12.1089 6.94551 12.0026 6.44825 11.7962 5.98431C11.5897 5.52037 11.2871 5.09882 10.9055 4.74375C10.524 4.38868 10.0711 4.10704 9.57262 3.91492C9.07414 3.72279 8.53989 3.62395 8.00036 3.62402ZM8.00036 9.92967C7.47275 9.92967 6.957 9.78405 6.51831 9.51123C6.07962 9.23841 5.73771 8.85063 5.5358 8.39694C5.33389 7.94326 5.28107 7.44403 5.384 6.9624C5.48693 6.48076 5.74099 6.03836 6.11407 5.69112C6.48714 5.34388 6.96246 5.10741 7.47993 5.0116C7.9974 4.9158 8.53377 4.96497 9.02121 5.15289C9.50866 5.34082 9.92528 5.65906 10.2184 6.06737C10.5115 6.47567 10.668 6.95572 10.668 7.44678C10.668 8.10529 10.3869 8.73682 9.88665 9.20245C9.38637 9.66808 8.70786 9.92967 8.00036 9.92967Z" fill="white" fill-opacity="0.87"/>
<path d="M12.2712 4.36646C12.8015 4.36646 13.2314 3.96634 13.2314 3.47278C13.2314 2.97921 12.8015 2.5791 12.2712 2.5791C11.7409 2.5791 11.311 2.97921 11.311 3.47278C11.311 3.96634 11.7409 4.36646 12.2712 4.36646Z" fill="white" fill-opacity="0.87"/>
</svg>
