<svg width="16" height="15" viewBox="0 0 16 15" fill="none" xmlns="http://www.w3.org/2000/svg">
<path d="M14.8189 0H1.18111C0.867861 0 0.567441 0.115821 0.345939 0.321982C0.124438 0.528144 0 0.80776 0 1.09932L0 13.7927C0 14.0842 0.124438 14.3638 0.345939 14.57C0.567441 14.7761 0.867861 14.892 1.18111 14.892H14.8189C15.1321 14.892 15.4326 14.7761 15.6541 14.57C15.8756 14.3638 16 14.0842 16 13.7927V1.09932C16 0.80776 15.8756 0.528144 15.6541 0.321982C15.4326 0.115821 15.1321 0 14.8189 0V0ZM4.76889 12.6871H2.36333V5.57415H4.76889V12.6871ZM3.56667 4.58859C3.38456 4.59192 3.2036 4.5612 3.03448 4.49824C2.86537 4.43529 2.71155 4.34139 2.58214 4.22209C2.45273 4.1028 2.35036 3.96055 2.28109 3.80376C2.21182 3.64697 2.17707 3.47884 2.17889 3.30933C2.17557 3.13885 2.20921 2.96951 2.27777 2.8114C2.34634 2.65329 2.44844 2.50967 2.57798 2.38911C2.70751 2.26854 2.86182 2.17351 3.03169 2.10969C3.20156 2.04587 3.38351 2.01457 3.56667 2.01765C3.74973 2.01471 3.93156 2.04612 4.1013 2.11C4.27104 2.17388 4.42522 2.26893 4.55463 2.38948C4.68405 2.51003 4.78605 2.65361 4.85455 2.81164C4.92305 2.96968 4.95664 3.13894 4.95333 3.30933C4.95515 3.47875 4.92043 3.6468 4.85123 3.80352C4.78203 3.96023 4.67976 4.10244 4.55047 4.22172C4.42118 4.34099 4.26749 4.43492 4.09851 4.49794C3.92953 4.56095 3.74868 4.59178 3.56667 4.58859ZM13.6367 12.6923H11.2311V8.80798C11.2311 7.66109 10.7078 7.30741 10.0333 7.30741C9.31889 7.30741 8.61889 7.80794 8.61889 8.8359V12.6923H6.21444V5.58449H8.52778V6.57005H8.55556C8.79111 6.12742 9.60333 5.37766 10.8444 5.37766C12.1867 5.37766 13.6367 6.11915 13.6367 8.2909V12.6923Z" fill="white" fill-opacity="0.87"/>
</svg>
