<svg width="20" height="15" viewBox="0 0 20 15" fill="none" xmlns="http://www.w3.org/2000/svg">
<path d="M6.22879 14.892C13.7062 14.892 17.7911 9.16072 17.7911 4.19334C17.7911 4.03059 17.7872 3.86858 17.7792 3.7073C18.5747 3.17494 19.2613 2.5156 19.8066 1.76023C19.0651 2.06485 18.2783 2.26453 17.4726 2.35256C18.321 1.88252 18.9561 1.1435 19.26 0.272802C18.462 0.710321 17.5894 1.01896 16.6796 1.18549C16.0668 0.582532 15.2564 0.183265 14.3737 0.0494926C13.491 -0.0842803 12.5853 0.0549008 11.7967 0.445492C11.0081 0.836084 10.3807 1.4563 10.0115 2.21015C9.64227 2.964 9.55191 3.80943 9.75437 4.61559C8.13846 4.54071 6.55764 4.1521 5.11463 3.47501C3.67162 2.79793 2.39869 1.84752 1.37854 0.685528C0.858652 1.51337 0.699359 2.49345 0.933109 3.42616C1.16686 4.35887 1.77607 5.17406 2.63666 5.70569C1.9913 5.68748 1.36011 5.52607 0.796227 5.23505C0.796227 5.25118 0.796227 5.26657 0.796227 5.2827C0.796301 6.15096 1.121 6.99246 1.71523 7.66443C2.30946 8.3364 3.13663 8.79746 4.0564 8.96938C3.4578 9.11992 2.82994 9.14199 2.22072 9.03389C2.48029 9.78109 2.98581 10.4345 3.66655 10.9027C4.3473 11.3709 5.1692 11.6305 6.01726 11.6451C4.57832 12.6916 2.80072 13.2597 0.970525 13.2579C0.646136 13.2571 0.322076 13.2387 0 13.2029C1.85829 14.3066 4.02065 14.8919 6.22879 14.889" fill="white" fill-opacity="0.87"/>
</svg>
